<svg width="32" height="32" viewBox="0 0 32 32" fill="none" xmlns="http://www.w3.org/2000/svg">
<path d="M22 16L14 16M22 12L14 12M22 20L14 20M11.3333 16C11.3333 16.3682 11.0349 16.6667 10.6667 16.6667C10.2985 16.6667 10 16.3682 10 16C10 15.6318 10.2985 15.3333 10.6667 15.3333C11.0349 15.3333 11.3333 15.6318 11.3333 16ZM11.3333 12C11.3333 12.3682 11.0349 12.6667 10.6667 12.6667C10.2985 12.6667 10 12.3682 10 12C10 11.6318 10.2985 11.3333 10.6667 11.3333C11.0349 11.3333 11.3333 11.6318 11.3333 12ZM11.3333 20C11.3333 20.3682 11.0349 20.6667 10.6667 20.6667C10.2985 20.6667 10 20.3682 10 20C10 19.6318 10.2985 19.3333 10.6667 19.3333C11.0349 19.3333 11.3333 19.6318 11.3333 20Z" stroke="#767676" stroke-linecap="round" stroke-linejoin="round"/>
</svg>
